<svg width="10" height="10" viewBox="0 0 10 10" fill="none" xmlns="http://www.w3.org/2000/svg">
<path fill-rule="evenodd" clip-rule="evenodd" d="M5 10C7.76142 10 10 7.76142 10 5C10 2.23858 7.76142 0 5 0C2.23858 0 0 2.23858 0 5C0 7.76142 2.23858 10 5 10ZM5.47607 6.22375L5.61707 1.9043H4.30542L4.45068 6.22375H5.47607ZM4.45923 7.10815C4.3339 7.22778 4.27124 7.37874 4.27124 7.56104C4.27124 7.73763 4.3339 7.88717 4.45923 8.00964C4.5874 8.13212 4.75545 8.19336 4.96338 8.19336C5.17415 8.19336 5.3422 8.13212 5.46753 8.00964C5.59285 7.88717 5.65552 7.73763 5.65552 7.56104C5.65552 7.37874 5.59285 7.22778 5.46753 7.10815C5.3422 6.98568 5.17415 6.92444 4.96338 6.92444C4.75545 6.92444 4.5874 6.98568 4.45923 7.10815Z" fill="white"/>
</svg>
