<svg width="146" height="21" viewBox="0 0 146 21" fill="none" xmlns="http://www.w3.org/2000/svg">
<path d="M44.6915 3.93068H51.3385V19.6534H56.7343V3.93068H63.4987V0.0363953H44.6915V3.93068ZM78.5131 8.37088H70.5367V0.0363953H65.1409V19.617H70.5367V12.2288H78.5131V19.617H83.909V0.0363953H78.5131V8.37088ZM12.0819 14.6308L7.07713 0.0363953H0V21C0 20.8544 1.91591 20.6724 5.39582 20.5269V16.0867L4.88752 6.04159L10.0878 20.3085C11.339 20.3085 12.7076 20.2357 14.1934 20.1993L19.3546 6.07799L18.8463 16.1231V20.1265C20.5667 20.1265 22.3653 20.0537 24.2812 20.0537V0.0363953H17.1259L12.121 14.6308H12.0819ZM34.0171 0L26.158 19.9081C27.9957 19.9081 29.9116 19.8717 31.9057 19.8354L32.805 17.0329H32.8441C32.8441 17.0693 40.2732 17.0693 40.2732 17.0693L41.1725 19.7626C43.0493 19.7626 44.9652 19.7626 46.8811 19.7262L39.0611 0.0363953H33.9389L34.0171 0ZM34.2126 13.175L36.5978 5.89601L39.022 13.175H34.1735H34.2126ZM139.548 10.4454L145.844 0.0363953H139.666L135.99 6.98787L132.315 0.0363953H126.137L132.432 10.4454L126.528 20.1265C128.718 20.1629 130.751 20.1993 132.628 20.2357L135.99 13.9393L139.47 20.4541C143.498 20.5997 145.805 20.7816 146 21L139.548 10.4818V10.4454ZM119.021 19.9445C120.898 19.9445 122.696 19.9809 124.417 20.0173V0.0363953H119.021V19.9445ZM85.9031 19.5806H91.2989V12.6291H100.018V8.73483H91.2989V3.89428H100.957V0H85.9031V19.5806ZM108.425 17.1057V0.0363953H103.029V19.7262C108.307 19.7262 113.273 19.799 117.926 19.8717V17.1057H117.887C117.887 17.0693 108.464 17.0693 108.464 17.0693L108.425 17.1057Z" fill="url(#paint0_linear_3_77)"/>
<defs>
<linearGradient id="paint0_linear_3_77" x1="2.15051" y1="0.800695" x2="145.413" y2="23.4936" gradientUnits="userSpaceOnUse">
<stop stop-color="#38883E"/>
<stop offset="0.1" stop-color="#398A3F"/>
<stop offset="0.2" stop-color="#4AA148"/>
<stop offset="0.3" stop-color="#51AB47"/>
<stop offset="0.4" stop-color="#3F9439"/>
<stop offset="0.5" stop-color="#3E9238"/>
<stop offset="0.6" stop-color="#409539"/>
<stop offset="0.7" stop-color="#54B04A"/>
<stop offset="0.8" stop-color="#4AA148"/>
<stop offset="0.9" stop-color="#398A3F"/>
<stop offset="1" stop-color="#38883E"/>
</linearGradient>
</defs>
</svg>
