<svg width="22" height="25" viewBox="0 0 22 25" fill="none" xmlns="http://www.w3.org/2000/svg">
<path d="M0.565072 19.9119L2.18954 16.663L2.18954 11.1482C2.18954 7.14905 4.83888 3.77044 8.47825 2.66747V2.57265C8.47825 1.15177 9.63001 1.24218e-07 11.0509 0C12.4718 -1.24218e-07 13.6236 1.15177 13.6236 2.57265V2.66747C17.2629 3.77043 19.9123 7.14904 19.9123 11.1482V16.663L21.5367 19.9119C21.6692 20.1782 21.6553 20.4934 21.4991 20.7458C21.3429 20.9981 21.0668 21.1529 20.7698 21.1529H1.33199C1.03498 21.1529 0.758893 20.9995 0.602721 20.7458C0.446549 20.4934 0.432604 20.1768 0.565072 19.9119Z" fill="#D9D9D9"/>
<path d="M14.1952 21.5424V21.8283C14.1952 23.5643 12.7869 24.9726 11.0509 24.9726C9.31487 24.9726 7.90653 23.5643 7.90653 21.8283V21.5424H14.1952Z" fill="#D9D9D9"/>
</svg>
