<svg width="25" height="25" viewBox="0 0 25 25" fill="none" xmlns="http://www.w3.org/2000/svg">
<path d="M24.4552 21.8584L18.1351 15.5383C20.02 12.7848 20.3896 9.29213 19.133 6.20599C17.8764 3.11986 15.1598 0.865317 11.9074 0.200042C8.63646 -0.465232 5.27313 0.551159 2.90771 2.91658C0.560765 5.26352 -0.455627 8.64533 0.191168 11.9163C0.856443 15.1872 3.11098 17.8853 6.19712 19.1419C9.28325 20.3985 12.7944 20.0104 15.5294 18.144L21.8496 24.4641C22.2007 24.8152 22.6627 25 23.1431 25C23.6236 25 24.0856 24.7967 24.4367 24.4641C24.7878 24.1314 24.9726 23.651 24.9726 23.1705C24.9726 22.69 24.7878 22.228 24.4367 21.8769L24.4552 21.8584ZM5.51336 14.3741C4.33065 13.1914 3.66538 11.6021 3.66538 9.93892C3.66538 8.27573 4.33065 6.66799 5.49488 5.50376C6.67759 4.32105 8.26686 3.65577 9.93005 3.65577C11.5932 3.65577 13.201 4.32105 14.3652 5.50376C15.5479 6.68647 16.1947 8.27573 16.1947 9.93892C16.1947 11.6021 15.5294 13.2099 14.3467 14.3741C13.164 15.5568 11.5748 16.2221 9.91157 16.2221C8.24838 16.2221 6.64064 15.5568 5.47641 14.3741H5.51336Z" fill="#D9D9D9"/>
</svg>
